# xmcd
# Track frame offsets:
# 150
# 13346
# 27987
# 40093
# 51648
# 66085
# 78295
# 92966
# 103028
# 112273
# 124124
# 134333
# 144311
# 160617
# 172871
# 186954
# 202067
# 218016
# 235313
# 246196
# 257996
#
# Disc length: 3602 seconds
# Revision: 2
# Processed by: cddbd v1.5.2PL0 Copyright (c) Steve Scherf et al.
# Submitted via: VisiTrax 2.11.2.271 - For more info visit www.synapsa.com
#
DISCID=350e1015
DTITLE=Slim Dusty - The Man Who Is Australia Disc 1
DYEAR=2000
DGENRE=Australian Country
TTITLE0=The Rain Still Tumbles Down
TTITLE1=Hello And Goodbye
TTITLE2=Travellin' Through
TTITLE3=I Want a Pardon For Daddy
TTITLE4=Mother, The Queen Of My Heart
TTITLE5=Eumerella Shore
TTITLE6=Music My Dad Played To Me
TTITLE7=Happy Jack
TTITLE8=You Took The Joy Out Of Living
TTITLE9=If I Only Had A Home Sweet Home
TTITLE10=I've Been Talking To Grannie
TTITLE11=Many Mothers
TTITLE12=My Son
TTITLE13=Sweet Thang
TTITLE14=The Sunset Years Of Life
TTITLE15=Death Row
TTITLE16=Camooweal
TTITLE17=Ramblin' Shoes
TTITLE18=Just Lovin' You
TTITLE19=Ridin' This Road
TTITLE20=I've Been There (And Back Again)
EXTD=Ramblin' Shoes 1953 - 1976 EMI Music Australia
EXTT0=
EXTT1=
EXTT2=
EXTT3=
EXTT4=
EXTT5=
EXTT6=
EXTT7=
EXTT8=
EXTT9=
EXTT10=
EXTT11=
EXTT12=
EXTT13=
EXTT14=
EXTT15=
EXTT16=
EXTT17=
EXTT18=
EXTT19=
EXTT20=
PLAYORDER=
